<svg width="32" height="32" viewBox="0 0 32 32" fill="none" xmlns="http://www.w3.org/2000/svg">
<path d="M25.64 20.349L22.2534 19.9623C21.4401 19.869 20.6401 20.149 20.0667 20.7223L17.6134 23.1756C13.8401 21.2556 10.7467 18.1756 8.82672 14.389L11.2934 11.9223C11.8667 11.349 12.1467 10.549 12.0534 9.73562L11.6667 6.37563C11.5067 5.02896 10.3734 4.01562 9.01339 4.01562H6.70672C5.20005 4.01562 3.94672 5.26896 4.04005 6.77562C4.74672 18.1623 13.8534 27.2556 25.2267 27.9623C26.7334 28.0556 27.9867 26.8023 27.9867 25.2956V22.989C28 21.6423 26.9867 20.509 25.64 20.349Z" fill="#00A85A"/>
</svg>
