<svg width="1386" height="881" viewBox="0 0 1386 881" fill="none" xmlns="http://www.w3.org/2000/svg">
<path fill-rule="evenodd" clip-rule="evenodd" d="M1386 254V238V30C1386 13.4315 1372.57 2.009e-05 1356 1.84708e-05L1167 0C1150.43 -1.61923e-06 1137 13.4315 1137 30V128C1137 144.569 1123.57 158 1107 158L898 158C881.431 158 868 171.431 868 188V349C868 365.569 854.569 379 838 379H418.5C418.224 379 418 379.224 418 379.5C418 379.776 417.776 380 417.5 380H214C197.431 380 184 366.569 184 350V284C184 267.431 170.569 254 154 254H30C13.4315 254 0 267.431 0 284V380V412V458V703V851C0 867.569 13.4314 881 30 881H1356C1372.57 881 1386 867.569 1386 851V774V521V458V379V254Z"/>
</svg>
