<svg width="263" height="44" viewBox="0 0 263 44" fill="none" xmlns="http://www.w3.org/2000/svg">
<g clip-path="url(#clip0_215_1490)">
<path fill-rule="evenodd" clip-rule="evenodd" d="M16.4733 0.5H32.3534C38.3633 0.5 43.2805 5.38535 43.2805 11.3563V32.6436C43.2805 38.6146 38.3633 43.5 32.3534 43.5H16.2804C17.6719 37.0401 19.2653 28.0751 19.3418 22.9143C31.5223 23.699 39.6393 17.1571 39.0253 5.39126C31.8523 4.27313 21.9027 7.53225 19.9205 16.5556C23.4864 18.5285 29.0273 15.5394 31.3655 11.7721C30.1783 12.8467 26.0487 16.8019 22.0257 15.919C23.3659 11.6743 29.629 7.92071 35.2933 8.48458C34.8874 14.2399 27.0459 19.0994 19.3095 18.8963C19.1374 13.2662 17.7381 6.27565 16.4736 0.5L16.4733 0.5ZM10.1571 43.4723C4.50281 43.0761 0 38.3572 0 32.6436V11.3563C0 5.55521 4.64108 0.779532 10.4169 0.512555C12.5651 6.46803 13.3561 15.865 13.3839 21.0144C9.7932 21.0934 6.16419 18.8372 5.97575 16.166C8.61314 15.9034 11.5289 17.6508 12.153 19.6275C10.2801 20.0385 8.35743 18.1969 7.80475 17.697C8.89338 19.451 11.4728 20.8427 13.1334 19.9236C12.2102 15.7229 7.57766 14.2052 4.23781 14.7255C3.95274 20.1924 7.71592 23.2374 13.3683 22.8866C13.2527 27.9525 11.5014 38.1198 10.1563 43.4726L10.1571 43.4723Z" fill="#2EB457"/>
<path d="M63.2009 35.8804V18.4179H70.0679V14.3003H51.7656V18.4179H58.6025V35.8804H63.2009ZM80.8665 29.1181C80.8665 31.282 79.4144 32.4843 77.9016 32.4843C76.2076 32.4843 75.0881 31.4925 75.0881 29.2385V19.8311H70.8834V30.0501C70.8834 34.228 73.2431 36.1817 76.48 36.1817C78.5372 36.1817 80.322 35.1899 81.1991 33.7771V35.8811H85.0411V19.8315H80.8665V29.1188V29.1181ZM92.6634 28.096C92.6634 24.5492 95.0532 23.7076 98.6228 23.9783V19.6502C96.0211 19.6502 93.5104 20.8824 92.3303 22.9263V19.8304H88.4583V35.88H92.663V28.0956L92.6634 28.096ZM116.561 27.8556C116.561 23.1069 113.748 19.5302 109.391 19.5302C107.455 19.5302 105.821 20.3418 104.642 21.9045V14.3007H100.437V35.8808H104.309V33.5666C105.549 35.2497 107.304 36.1814 109.391 36.1814C113.748 36.1814 116.561 32.5445 116.561 27.8559V27.8556ZM112.235 27.8556C112.235 30.861 110.511 32.454 108.454 32.454C106.366 32.454 104.672 30.8311 104.672 27.7954C104.672 24.7597 106.427 23.2269 108.454 23.2269C110.511 23.2269 112.235 24.79 112.235 27.8556ZM123.094 27.1344C123.094 24.5496 124.516 23.2272 126.18 23.2272C128.086 23.2272 129.023 24.5496 129.023 26.9243V35.8808H133.198V25.5115C133.198 21.6342 130.959 19.5305 127.722 19.5305C125.605 19.5305 124.213 20.4622 123.094 21.9348V14.3007H118.889V35.8808H123.094V27.1344ZM146.084 35.8808H149.503V25.7822C149.503 21.8451 147.022 19.5305 142.787 19.5305C138.884 19.5305 136.192 21.9348 135.95 25.6319H139.731C139.883 23.8284 140.972 22.7764 142.787 22.7764C144.541 22.7764 145.57 23.8284 145.57 25.6319V26.5938C144.572 26.4734 143.785 26.4132 142.877 26.4132C138.158 26.4132 135.617 28.0963 135.617 31.2222C135.617 34.228 137.856 36.1814 141.214 36.1814C143.422 36.1814 145.025 35.4 146.084 33.8971V35.8808ZM139.58 31.1018C139.58 29.6591 140.76 28.908 143.15 28.908C143.876 28.908 144.572 28.9682 145.57 29.1185V30.2606C145.57 32.1243 144.269 33.2963 142.121 33.2963C140.548 33.2963 139.58 32.4548 139.58 31.1021V31.1018ZM156.974 35.8808V26.9243C156.974 24.52 158.304 23.2272 159.999 23.2272C161.844 23.2272 162.812 24.5798 162.812 26.8342V35.8808H166.987V26.9243C166.987 24.52 168.348 23.2272 170.012 23.2272C171.857 23.2272 172.825 24.5798 172.825 26.8342V35.8808H177V25.5115C177 21.6641 174.791 19.5305 171.524 19.5305C169.105 19.5305 167.471 20.6125 166.2 22.3857C165.383 20.5523 163.689 19.5305 161.481 19.5305C159.333 19.5305 157.82 20.4925 156.64 22.1154V19.8311H152.768V35.8808H156.973H156.974Z" fill="#184D3B"/>
<path d="M184.047 35.8804V27.1041H192.457V24.2187H184.047V17.1857H193.91V14.3003H180.72V35.8804H184.047ZM205.676 35.8804H208.217V25.6614C208.217 21.8746 205.918 19.6502 201.955 19.6502C198.204 19.6502 195.632 22.0245 195.481 25.6012H198.265C198.355 23.3772 199.717 22.0545 201.955 22.0545C204.073 22.0545 205.313 23.3469 205.313 25.6311V26.8032C204.012 26.6529 203.256 26.6226 202.318 26.6226C197.539 26.6226 195.028 28.2455 195.028 31.3713C195.028 34.2867 197.206 36.1803 200.534 36.1803C202.893 36.1803 204.678 35.1884 205.676 33.4148V35.8793L205.676 35.8804ZM197.932 31.282C197.932 29.4183 199.444 28.5169 202.499 28.5169C203.286 28.5169 204.133 28.5468 205.313 28.6971V29.9896C205.313 32.4241 203.71 34.0167 201.138 34.0167C199.172 34.0167 197.932 32.9348 197.932 31.2816L197.932 31.282ZM214.992 27.7352C214.992 24.2187 217.503 22.7162 220.951 22.8964V19.7406C218.32 19.7406 215.899 21.1232 214.78 23.3173V19.9511H211.936V35.8808H214.992V27.7356L214.992 27.7352ZM226.063 35.8804V26.7434C226.063 24.0684 227.727 22.3251 229.844 22.3251C232.083 22.3251 233.262 23.8878 233.262 26.5329V35.88H236.318V26.743C236.318 24.068 238.012 22.3248 240.099 22.3248C242.338 22.3248 243.518 23.8875 243.518 26.5325V35.8797H246.573V25.5706C246.573 21.7834 244.456 19.6498 241.158 19.6498C238.708 19.6498 236.862 20.9123 235.743 22.9558C235.017 20.8518 233.232 19.6498 230.873 19.6498C228.664 19.6498 226.94 20.762 225.851 22.5954V19.9504H223.007V35.88H226.063V35.8804ZM262.999 31.1317C262.999 28.8474 261.486 27.4649 258.31 26.894L255.587 26.383C253.651 26.0222 252.834 25.421 252.834 24.129C252.834 22.7465 254.135 21.9348 256.071 21.9348C258.219 21.9348 259.641 23.047 259.822 24.9705H262.756C262.484 21.6944 259.883 19.6505 256.041 19.6505C252.319 19.6505 249.869 21.6043 249.869 24.3993C249.869 26.8035 251.533 28.3064 254.497 28.8777L257.099 29.3585C259.096 29.7492 259.913 30.3204 259.913 31.6427C259.913 33.1456 258.491 33.8967 256.343 33.8967C253.892 33.8967 252.289 32.6645 252.168 30.6808H249.234C249.536 34.1072 252.047 36.181 256.283 36.181C260.548 36.181 262.998 34.2571 262.998 31.1317H262.999Z" fill="#2EB457"/>
</g>
<defs>
<clipPath id="clip0_215_1490">
<rect width="263" height="43" fill="white" transform="translate(0 0.5)"/>
</clipPath>
</defs>
</svg>
