<svg width="18" height="18" viewBox="0 0 18 18" fill="none" xmlns="http://www.w3.org/2000/svg">
<path d="M17.2719 5.46079L15.1695 7.56313C14.7448 12.4864 10.5929 16.3128 5.62391 16.3128C4.60297 16.3128 3.76133 16.1511 3.12219 15.8319C2.6068 15.5738 2.39586 15.2975 2.34312 15.2188C2.2961 15.1482 2.26562 15.068 2.25397 14.9841C2.24231 14.9001 2.24978 14.8146 2.27581 14.7339C2.30184 14.6533 2.34576 14.5795 2.40429 14.5182C2.46283 14.4569 2.53445 14.4097 2.61383 14.3799C2.63211 14.3729 4.3182 13.7253 5.38906 12.4927C4.79519 12.0045 4.27677 11.4311 3.85062 10.7912C2.97875 9.49672 2.00281 7.24813 2.30375 3.8879C2.31329 3.78112 2.35314 3.6793 2.41861 3.59442C2.48408 3.50953 2.57244 3.44512 2.67328 3.40877C2.77413 3.37243 2.88326 3.36565 2.98783 3.38925C3.0924 3.41284 3.18805 3.46583 3.26352 3.54196C3.28812 3.56657 5.60352 5.8693 8.4343 6.61602V6.18782C8.43322 5.7388 8.522 5.2941 8.6954 4.87991C8.8688 4.46573 9.12333 4.09042 9.44398 3.7761C9.7554 3.46513 10.1259 3.21968 10.5338 3.05423C10.9416 2.88879 11.3784 2.8067 11.8184 2.81282C12.4088 2.81864 12.9875 2.97711 13.4985 3.27281C14.0094 3.56851 14.4352 3.99138 14.7343 4.50032H16.8739C16.9852 4.50023 17.0941 4.53317 17.1866 4.59498C17.2792 4.65678 17.3514 4.74466 17.394 4.8475C17.4366 4.95034 17.4478 5.06351 17.426 5.17268C17.4043 5.28185 17.3506 5.38212 17.2719 5.46079Z" fill="#003B36"/>
</svg>
